<?xml version="1.0" encoding="UTF-8" standalone="no"?><svg xmlns="http://www.w3.org/2000/svg" xmlns:xlink="http://www.w3.org/1999/xlink" contentStyleType="text/css" height="442px" preserveAspectRatio="none" style="width:1285px;height:442px;background:#FFFFFF;" version="1.1" viewBox="0 0 1285 442" width="1285px" zoomAndPan="magnify"><defs/><g><g id="elem_TrainGame"><rect fill="#F1F1F1" height="37.6094" style="stroke:#181818;stroke-width:0.5;" width="85" x="831" y="7"/><text fill="#000000" font-family="sans-serif" font-size="14" lengthAdjust="spacing" textLength="71" x="838" y="23.5332">TrainGame</text><line style="stroke:#181818;stroke-width:0.5;" x1="832" x2="915" y1="28.6094" y2="28.6094"/></g><g id="elem_User"><rect fill="#F1F1F1" height="37.6094" style="stroke:#181818;stroke-width:0.5;" width="43" x="329" y="105"/><text fill="#000000" font-family="sans-serif" font-size="14" lengthAdjust="spacing" textLength="29" x="336" y="121.5332">User</text><line style="stroke:#181818;stroke-width:0.5;" x1="330" x2="371" y1="126.6094" y2="126.6094"/></g><g id="elem_Driver"><rect fill="#F1F1F1" height="37.6094" style="stroke:#181818;stroke-width:0.5;" width="52" x="481.5" y="203"/><text fill="#000000" font-family="sans-serif" font-size="14" lengthAdjust="spacing" textLength="38" x="488.5" y="219.5332">Driver</text><line style="stroke:#181818;stroke-width:0.5;" x1="482.5" x2="532.5" y1="224.6094" y2="224.6094"/></g><g id="elem_name"><rect fill="#F1F1F1" height="37.6094" style="stroke:#181818;stroke-width:0.5;" width="49" x="7" y="203"/><text fill="#000000" font-family="sans-serif" font-size="14" lengthAdjust="spacing" textLength="35" x="14" y="219.5332">name</text><line style="stroke:#181818;stroke-width:0.5;" x1="8" x2="55" y1="224.6094" y2="224.6094"/></g><g id="elem_age"><rect fill="#F1F1F1" height="37.6094" style="stroke:#181818;stroke-width:0.5;" width="38" x="91.5" y="203"/><text fill="#000000" font-family="sans-serif" font-size="14" lengthAdjust="spacing" textLength="24" x="98.5" y="219.5332">age</text><line style="stroke:#181818;stroke-width:0.5;" x1="92.5" x2="128.5" y1="224.6094" y2="224.6094"/></g><g id="elem_gender"><rect fill="#F1F1F1" height="37.6094" style="stroke:#181818;stroke-width:0.5;" width="59" x="165" y="203"/><text fill="#000000" font-family="sans-serif" font-size="14" lengthAdjust="spacing" textLength="45" x="172" y="219.5332">gender</text><line style="stroke:#181818;stroke-width:0.5;" x1="166" x2="223" y1="224.6094" y2="224.6094"/></g><g id="elem_birthdate"><rect fill="#F1F1F1" height="37.6094" style="stroke:#181818;stroke-width:0.5;" width="70" x="259.5" y="203"/><text fill="#000000" font-family="sans-serif" font-size="14" lengthAdjust="spacing" textLength="56" x="266.5" y="219.5332">birthdate</text><line style="stroke:#181818;stroke-width:0.5;" x1="260.5" x2="328.5" y1="224.6094" y2="224.6094"/></g><g id="elem_Human"><rect fill="#F1F1F1" height="37.6094" style="stroke:#181818;stroke-width:0.5;" width="58" x="259.5" y="301"/><text fill="#000000" font-family="sans-serif" font-size="14" lengthAdjust="spacing" textLength="44" x="266.5" y="317.5332">Human</text><line style="stroke:#181818;stroke-width:0.5;" x1="260.5" x2="316.5" y1="322.6094" y2="322.6094"/></g><g id="elem_Computer"><rect fill="#F1F1F1" height="37.6094" style="stroke:#181818;stroke-width:0.5;" width="76" x="352.5" y="301"/><text fill="#000000" font-family="sans-serif" font-size="14" lengthAdjust="spacing" textLength="62" x="359.5" y="317.5332">Computer</text><line style="stroke:#181818;stroke-width:0.5;" x1="353.5" x2="427.5" y1="322.6094" y2="322.6094"/></g><g id="elem_Passenger"><rect fill="#F1F1F1" height="37.6094" style="stroke:#181818;stroke-width:0.5;" width="82" x="364.5" y="203"/><text fill="#000000" font-family="sans-serif" font-size="14" lengthAdjust="spacing" textLength="68" x="371.5" y="219.5332">Passenger</text><line style="stroke:#181818;stroke-width:0.5;" x1="365.5" x2="445.5" y1="224.6094" y2="224.6094"/></g><g id="elem_driverGoals"><rect fill="#F1F1F1" height="37.6094" style="stroke:#181818;stroke-width:0.5;" width="87" x="464" y="301"/><text fill="#000000" font-family="sans-serif" font-size="14" lengthAdjust="spacing" textLength="73" x="471" y="317.5332">driverGoals</text><line style="stroke:#181818;stroke-width:0.5;" x1="465" x2="550" y1="322.6094" y2="322.6094"/></g><g id="elem_forward"><rect fill="#F1F1F1" height="37.6094" style="stroke:#181818;stroke-width:0.5;" width="61" x="345" y="399"/><text fill="#000000" font-family="sans-serif" font-size="14" lengthAdjust="spacing" textLength="47" x="352" y="415.5332">forward</text><line style="stroke:#181818;stroke-width:0.5;" x1="346" x2="405" y1="420.6094" y2="420.6094"/></g><g id="elem_stop"><rect fill="#F1F1F1" height="37.6094" style="stroke:#181818;stroke-width:0.5;" width="41" x="441" y="399"/><text fill="#000000" font-family="sans-serif" font-size="14" lengthAdjust="spacing" textLength="27" x="448" y="415.5332">stop</text><line style="stroke:#181818;stroke-width:0.5;" x1="442" x2="481" y1="420.6094" y2="420.6094"/></g><g id="elem_turnTrain"><rect fill="#F1F1F1" height="37.6094" style="stroke:#181818;stroke-width:0.5;" width="72" x="517.5" y="399"/><text fill="#000000" font-family="sans-serif" font-size="14" lengthAdjust="spacing" textLength="58" x="524.5" y="415.5332">turnTrain</text><line style="stroke:#181818;stroke-width:0.5;" x1="518.5" x2="588.5" y1="420.6094" y2="420.6094"/></g><g id="elem_makeWhistle"><rect fill="#F1F1F1" height="37.6094" style="stroke:#181818;stroke-width:0.5;" width="94" x="624.5" y="399"/><text fill="#000000" font-family="sans-serif" font-size="14" lengthAdjust="spacing" textLength="80" x="631.5" y="415.5332">makeWhistle</text><line style="stroke:#181818;stroke-width:0.5;" x1="625.5" x2="717.5" y1="420.6094" y2="420.6094"/></g><g id="elem_Train"><rect fill="#F1F1F1" height="37.6094" style="stroke:#181818;stroke-width:0.5;" width="47" x="850" y="105"/><text fill="#000000" font-family="sans-serif" font-size="14" lengthAdjust="spacing" textLength="33" x="857" y="121.5332">Train</text><line style="stroke:#181818;stroke-width:0.5;" x1="851" x2="896" y1="126.6094" y2="126.6094"/></g><g id="elem_mainWagon"><rect fill="#F1F1F1" height="37.6094" style="stroke:#181818;stroke-width:0.5;" width="89" x="1020" y="203"/><text fill="#000000" font-family="sans-serif" font-size="14" lengthAdjust="spacing" textLength="75" x="1027" y="219.5332">mainWagon</text><line style="stroke:#181818;stroke-width:0.5;" x1="1021" x2="1108" y1="224.6094" y2="224.6094"/></g><g id="elem_trainGoals"><rect fill="#F1F1F1" height="37.6094" style="stroke:#181818;stroke-width:0.5;" width="79" x="753" y="203"/><text fill="#000000" font-family="sans-serif" font-size="14" lengthAdjust="spacing" textLength="65" x="760" y="219.5332">trainGoals</text><line style="stroke:#181818;stroke-width:0.5;" x1="754" x2="831" y1="224.6094" y2="224.6094"/></g><g id="elem_accelerate"><rect fill="#F1F1F1" height="37.6094" style="stroke:#181818;stroke-width:0.5;" width="80" x="752.5" y="301"/><text fill="#000000" font-family="sans-serif" font-size="14" lengthAdjust="spacing" textLength="66" x="759.5" y="317.5332">accelerate</text><line style="stroke:#181818;stroke-width:0.5;" x1="753.5" x2="831.5" y1="322.6094" y2="322.6094"/></g><g id="elem_brake"><rect fill="#F1F1F1" height="37.6094" style="stroke:#181818;stroke-width:0.5;" width="50" x="867.5" y="301"/><text fill="#000000" font-family="sans-serif" font-size="14" lengthAdjust="spacing" textLength="36" x="874.5" y="317.5332">brake</text><line style="stroke:#181818;stroke-width:0.5;" x1="868.5" x2="916.5" y1="322.6094" y2="322.6094"/></g><g id="elem_whistle"><rect fill="#F1F1F1" height="37.6094" style="stroke:#181818;stroke-width:0.5;" width="56" x="586.5" y="301"/><text fill="#000000" font-family="sans-serif" font-size="14" lengthAdjust="spacing" textLength="42" x="593.5" y="317.5332">whistle</text><line style="stroke:#181818;stroke-width:0.5;" x1="587.5" x2="641.5" y1="322.6094" y2="322.6094"/></g><g id="elem_turn"><rect fill="#F1F1F1" height="37.6094" style="stroke:#181818;stroke-width:0.5;" width="39" x="678" y="301"/><text fill="#000000" font-family="sans-serif" font-size="14" lengthAdjust="spacing" textLength="25" x="685" y="317.5332">turn</text><line style="stroke:#181818;stroke-width:0.5;" x1="679" x2="716" y1="322.6094" y2="322.6094"/></g><g id="elem_Track"><rect fill="#F1F1F1" height="37.6094" style="stroke:#181818;stroke-width:0.5;" width="50" x="932.5" y="105"/><text fill="#000000" font-family="sans-serif" font-size="14" lengthAdjust="spacing" textLength="36" x="939.5" y="121.5332">Track</text><line style="stroke:#181818;stroke-width:0.5;" x1="933.5" x2="981.5" y1="126.6094" y2="126.6094"/></g><g id="elem_lanes"><rect fill="#F1F1F1" height="37.6094" style="stroke:#181818;stroke-width:0.5;" width="48" x="1144.5" y="203"/><text fill="#000000" font-family="sans-serif" font-size="14" lengthAdjust="spacing" textLength="34" x="1151.5" y="219.5332">lanes</text><line style="stroke:#181818;stroke-width:0.5;" x1="1145.5" x2="1191.5" y1="224.6094" y2="224.6094"/></g><g id="elem_Wagon"><rect fill="#F1F1F1" height="37.6094" style="stroke:#181818;stroke-width:0.5;" width="59" x="926" y="203"/><text fill="#000000" font-family="sans-serif" font-size="14" lengthAdjust="spacing" textLength="45" x="933" y="219.5332">Wagon</text><line style="stroke:#181818;stroke-width:0.5;" x1="927" x2="984" y1="224.6094" y2="224.6094"/></g><g id="elem_color"><rect fill="#F1F1F1" height="37.6094" style="stroke:#181818;stroke-width:0.5;" width="45" x="1234" y="301"/><text fill="#000000" font-family="sans-serif" font-size="14" lengthAdjust="spacing" textLength="31" x="1241" y="317.5332">color</text><line style="stroke:#181818;stroke-width:0.5;" x1="1235" x2="1278" y1="322.6094" y2="322.6094"/></g><g id="elem_passengerWagon"><rect fill="#F1F1F1" height="37.6094" style="stroke:#181818;stroke-width:0.5;" width="126" x="952.5" y="301"/><text fill="#000000" font-family="sans-serif" font-size="14" lengthAdjust="spacing" textLength="112" x="959.5" y="317.5332">passengerWagon</text><line style="stroke:#181818;stroke-width:0.5;" x1="953.5" x2="1077.5" y1="322.6094" y2="322.6094"/></g><g id="elem_dimensions"><rect fill="#F1F1F1" height="37.6094" style="stroke:#181818;stroke-width:0.5;" width="85" x="1114" y="301"/><text fill="#000000" font-family="sans-serif" font-size="14" lengthAdjust="spacing" textLength="71" x="1121" y="317.5332">dimensions</text><line style="stroke:#181818;stroke-width:0.5;" x1="1115" x2="1198" y1="322.6094" y2="322.6094"/></g><!--MD5=[fe2aae27ba6e3263609bdceec69044f4]
reverse link TrainGame to User--><g id="link_TrainGame_User"><path codeLine="35" d="M817.84,37.22 C703.79,58.15 447.9,105.12 372.07,119.04 " fill="none" id="TrainGame-backto-User" style="stroke:#181818;stroke-width:1.0;"/><polygon fill="#181818" points="830.7,34.86,824.0742,32.0141,818.8989,37.0356,825.5246,39.8815,830.7,34.86" style="stroke:#181818;stroke-width:1.0;"/></g><!--MD5=[8c6fda85f6c0c148b5e06775efab5359]
reverse link TrainGame to Train--><g id="link_TrainGame_Train"><path codeLine="36" d="M873.5,58.22 C873.5,73.59 873.5,91.58 873.5,104.7 " fill="none" id="TrainGame-backto-Train" style="stroke:#181818;stroke-width:1.0;"/><polygon fill="#181818" points="873.5,45.06,869.5,51.06,873.5,57.06,877.5,51.06,873.5,45.06" style="stroke:#181818;stroke-width:1.0;"/></g><!--MD5=[ce4ddf2e229d9836e7a5bd03ca46714b]
reverse link TrainGame to Track--><g id="link_TrainGame_Track"><path codeLine="37" d="M897.97,54.97 C911.99,70.99 929.19,90.64 941.49,104.7 " fill="none" id="TrainGame-backto-Track" style="stroke:#181818;stroke-width:1.0;"/><polygon fill="#181818" points="889.3,45.06,890.2496,52.2083,897.2133,54.0811,896.2637,46.9328,889.3,45.06" style="stroke:#181818;stroke-width:1.0;"/></g><!--MD5=[fd2edee2f70dc2b8bbee4097b2388758]
reverse link User to name--><g id="link_User_name"><path codeLine="39" d="M315.72,133.24 C262.79,146.13 159.12,172.74 73.5,203 C67.82,205.01 61.8,207.41 56.16,209.8 " fill="none" id="User-backto-name" style="stroke:#181818;stroke-width:1.0;"/><polygon fill="#181818" points="328.65,130.12,321.88,127.6368,316.9839,132.931,323.7539,135.4142,328.65,130.12" style="stroke:#181818;stroke-width:1.0;"/></g><!--MD5=[ca71a7526c47853e8769a6dcef768421]
reverse link User to age--><g id="link_User_age"><path codeLine="40" d="M316.57,137.02 C275.97,151.64 206.12,177.54 147.5,203 C141.6,205.56 135.28,208.55 129.56,211.34 " fill="none" id="User-backto-age" style="stroke:#181818;stroke-width:1.0;"/><polygon fill="#181818" points="328.92,132.6,321.9225,130.8578,317.623,136.6469,324.6205,138.3891,328.92,132.6" style="stroke:#181818;stroke-width:1.0;"/></g><!--MD5=[e46b955891e75023396284b94f463039]
reverse link User to gender--><g id="link_User_gender"><path codeLine="41" d="M317.72,145.17 C290.03,162.21 250.71,186.41 223.99,202.85 " fill="none" id="User-backto-gender" style="stroke:#181818;stroke-width:1.0;"/><polygon fill="#181818" points="328.81,138.35,321.6036,138.0885,318.5906,144.6399,325.7969,144.9014,328.81,138.35" style="stroke:#181818;stroke-width:1.0;"/></g><!--MD5=[37a8e723795efe569328b40ed82784ac]
reverse link User to birthdate--><g id="link_User_birthdate"><path codeLine="42" d="M333.38,154.35 C324.19,170.11 313.14,189.04 305.18,202.7 " fill="none" id="User-backto-birthdate" style="stroke:#181818;stroke-width:1.0;"/><polygon fill="#181818" points="339.97,143.06,333.4902,146.2241,333.9186,153.4225,340.3985,150.2584,339.97,143.06" style="stroke:#181818;stroke-width:1.0;"/></g><!--MD5=[1194896b30a12d6e96b4c92497e9eedb]
link User to Train--><g id="link_User_Train"><path codeLine="43" d="M372.21,124 C529.6,124 686.99,124 844.39,124 " fill="none" id="User-to-Train" style="stroke:#181818;stroke-width:1.0;"/><polygon fill="#181818" points="849.51,124,840.51,120,844.51,124,840.51,128,849.51,124" style="stroke:#181818;stroke-width:1.0;"/></g><!--MD5=[5f8573aad75b317e018596eaf6af6390]
reverse link User to Driver--><g id="link_User_Driver"><path codeLine="44" d="M389.21,148.67 C417.87,166.19 456.15,189.6 481.3,204.98 " fill="none" id="User-backto-Driver" style="stroke:#181818;stroke-width:1.0;"/><polygon fill="none" points="385.41,154.55,372,138.15,392.72,142.61,385.41,154.55" style="stroke:#181818;stroke-width:1.0;"/></g><!--MD5=[e67f62cb908c850beba082723cfd675c]
reverse link Driver to Human--><g id="link_Driver_Human"><path codeLine="45" d="M462.54,242.71 C419.21,261.7 354.9,289.89 317.8,306.16 " fill="none" id="Driver-backto-Human" style="stroke:#181818;stroke-width:1.0;"/><polygon fill="none" points="459.96,236.2,481.08,234.58,465.58,249.02,459.96,236.2" style="stroke:#181818;stroke-width:1.0;"/></g><!--MD5=[5a4a3094c36b108204aadb37084b9b3f]
reverse link Driver to Computer--><g id="link_Driver_Computer"><path codeLine="46" d="M470.03,253.75 C451.17,269.22 428.96,287.45 412.81,300.7 " fill="none" id="Driver-backto-Computer" style="stroke:#181818;stroke-width:1.0;"/><polygon fill="none" points="465.59,248.33,485.49,241.06,474.47,259.15,465.59,248.33" style="stroke:#181818;stroke-width:1.0;"/></g><!--MD5=[d06452cb089db7c7b7ff6e00b3dd0c4c]
reverse link User to Passenger--><g id="link_User_Passenger"><path codeLine="47" d="M370.85,160.51 C379.06,174.85 388.19,190.78 395.01,202.7 " fill="none" id="User-backto-Passenger" style="stroke:#181818;stroke-width:1.0;"/><polygon fill="none" points="364.71,163.89,360.85,143.06,376.86,156.93,364.71,163.89" style="stroke:#181818;stroke-width:1.0;"/></g><!--MD5=[2c01ac62bded5956d7c7730f664ca05f]
reverse link Driver to driverGoals--><g id="link_Driver_driverGoals"><path codeLine="49" d="M507.5,254.22 C507.5,269.59 507.5,287.58 507.5,300.7 " fill="none" id="Driver-backto-driverGoals" style="stroke:#181818;stroke-width:1.0;"/><polygon fill="none" points="507.5,241.06,503.5,247.06,507.5,253.06,511.5,247.06,507.5,241.06" style="stroke:#181818;stroke-width:1.0;"/></g><!--MD5=[5e1929549935311388060b4a2739fb21]
reverse link driverGoals to forward--><g id="link_driverGoals_forward"><path codeLine="50" d="M466.19,351.05 C444.71,366.66 419.16,385.24 400.67,398.7 " fill="none" id="driverGoals-backto-forward" style="stroke:#181818;stroke-width:1.0;"/><polygon fill="none" points="462.38,345.16,482.67,339.06,470.61,356.48,462.38,345.16" style="stroke:#181818;stroke-width:1.0;"/></g><!--MD5=[936385188d1f4148e88f66ad44dd49cc]
reverse link driverGoals to stop--><g id="link_driverGoals_stop"><path codeLine="51" d="M490.02,357.48 C483.27,371.56 475.85,387.05 470.27,398.7 " fill="none" id="driverGoals-backto-stop" style="stroke:#181818;stroke-width:1.0;"/><polygon fill="none" points="483.89,354.07,498.85,339.06,496.52,360.12,483.89,354.07" style="stroke:#181818;stroke-width:1.0;"/></g><!--MD5=[4c6c8e25b601d4d513090a88bf020af5]
reverse link driverGoals to turnTrain--><g id="link_driverGoals_turnTrain"><path codeLine="52" d="M524.98,357.48 C531.73,371.56 539.15,387.05 544.73,398.7 " fill="none" id="driverGoals-backto-turnTrain" style="stroke:#181818;stroke-width:1.0;"/><polygon fill="none" points="518.48,360.12,516.15,339.06,531.11,354.07,518.48,360.12" style="stroke:#181818;stroke-width:1.0;"/></g><!--MD5=[a4da47995bbaea42262ff0615501a0e5]
reverse link driverGoals to makeWhistle--><g id="link_driverGoals_makeWhistle"><path codeLine="53" d="M555.73,349.23 C583.12,365.27 616.61,384.87 640.51,398.86 " fill="none" id="driverGoals-backto-makeWhistle" style="stroke:#181818;stroke-width:1.0;"/><polygon fill="none" points="552.07,355.2,538.35,339.06,559.14,343.12,552.07,355.2" style="stroke:#181818;stroke-width:1.0;"/></g><!--MD5=[c849a1c0ec1917d09dbfccf107ad6271]
reverse link Train to Wagon--><g id="link_Train_Wagon"><path codeLine="55" d="M897.39,152.97 C911.07,168.99 927.86,188.64 939.87,202.7 " fill="none" id="Train-backto-Wagon" style="stroke:#181818;stroke-width:1.0;"/><polygon fill="#181818" points="888.92,143.06,889.7749,150.2202,896.7132,152.185,895.8583,145.0248,888.92,143.06" style="stroke:#181818;stroke-width:1.0;"/></g><!--MD5=[5fafb17914df2d60f6679b19fc11b8ed]
reverse link Wagon to color--><g id="link_Wagon_color"><path codeLine="56" d="M997.68,239.37 C999.3,239.93 1000.91,240.48 1002.5,241 C1096.28,272.03 1123.65,267.3 1216.5,301 C1222.23,303.08 1228.28,305.62 1233.9,308.12 " fill="none" id="Wagon-backto-color" style="stroke:#181818;stroke-width:1.0;"/><polygon fill="#181818" points="985.19,234.84,989.4694,240.644,996.4729,238.9261,992.1935,233.1221,985.19,234.84" style="stroke:#181818;stroke-width:1.0;"/></g><!--MD5=[e41c6ca2b327b545644dc9c7b12a2bc6]
reverse link Wagon to dimensions--><g id="link_Wagon_dimensions"><path codeLine="57" d="M997.1,242.87 C1032.8,259.92 1083.84,284.3 1118.47,300.84 " fill="none" id="Wagon-backto-dimensions" style="stroke:#181818;stroke-width:1.0;"/><polygon fill="#181818" points="985.16,237.17,988.851,243.3649,995.989,242.3405,992.298,236.1456,985.16,237.17" style="stroke:#181818;stroke-width:1.0;"/></g><!--MD5=[152221b8875ed50cdcd6bfa5f8c67290]
reverse link Wagon to passengerWagon--><g id="link_Wagon_passengerWagon"><path codeLine="58" d="M977.39,258.03 C986.43,272.49 996.53,288.65 1004.06,300.7 " fill="none" id="Wagon-backto-passengerWagon" style="stroke:#181818;stroke-width:1.0;"/><polygon fill="none" points="971.45,261.73,966.79,241.06,983.32,254.31,971.45,261.73" style="stroke:#181818;stroke-width:1.0;"/></g><!--MD5=[ab301b398982aa1eabca310c4df75905]
reverse link Train to mainWagon--><g id="link_Train_mainWagon"><path codeLine="59" d="M909.04,142.86 C943.15,160.01 994.43,185.78 1028.65,202.98 " fill="none" id="Train-backto-mainWagon" style="stroke:#181818;stroke-width:1.0;"/><polygon fill="#181818" points="897.3,136.96,900.8685,143.2263,908.0252,142.3424,904.4567,136.0761,897.3,136.96" style="stroke:#181818;stroke-width:1.0;"/></g><!--MD5=[0f15160428095f296e37d3bd2d3d0c3f]
reverse link Train to trainGoals--><g id="link_Train_trainGoals"><path codeLine="60" d="M849.52,153.43 C836.07,169.36 819.69,188.78 807.94,202.7 " fill="none" id="Train-backto-trainGoals" style="stroke:#181818;stroke-width:1.0;"/><polygon fill="none" points="858.26,143.06,851.334,145.0677,850.5235,152.2331,857.4494,150.2254,858.26,143.06" style="stroke:#181818;stroke-width:1.0;"/></g><!--MD5=[695608ea52dad511b5880830cb57ad54]
reverse link trainGoals to accelerate--><g id="link_trainGoals_accelerate"><path codeLine="61" d="M792.5,261.43 C792.5,274.98 792.5,289.59 792.5,300.7 " fill="none" id="trainGoals-backto-accelerate" style="stroke:#181818;stroke-width:1.0;"/><polygon fill="none" points="785.5,261.06,792.5,241.06,799.5,261.06,785.5,261.06" style="stroke:#181818;stroke-width:1.0;"/></g><!--MD5=[0801dbb69d8949ca2418fb384265f5cf]
reverse link trainGoals to brake--><g id="link_trainGoals_brake"><path codeLine="62" d="M826,255.16 C841.79,270.32 860.05,287.85 873.44,300.7 " fill="none" id="trainGoals-backto-brake" style="stroke:#181818;stroke-width:1.0;"/><polygon fill="none" points="820.89,259.96,811.31,241.06,830.58,249.86,820.89,259.96" style="stroke:#181818;stroke-width:1.0;"/></g><!--MD5=[6267f6ae2e19ecdba48ed6138e54bfd3]
reverse link trainGoals to whistle--><g id="link_trainGoals_whistle"><path codeLine="63" d="M741.21,250.66 C709.1,267.98 668.95,289.63 642.56,303.87 " fill="none" id="trainGoals-backto-whistle" style="stroke:#181818;stroke-width:1.0;"/><polygon fill="none" points="738.09,244.39,759.02,241.06,744.74,256.71,738.09,244.39" style="stroke:#181818;stroke-width:1.0;"/></g><!--MD5=[24971507ef925dd9999a74716e91793a]
reverse link trainGoals to turn--><g id="link_trainGoals_turn"><path codeLine="64" d="M760.2,255.64 C745.31,270.68 728.2,287.98 715.61,300.7 " fill="none" id="trainGoals-backto-turn" style="stroke:#181818;stroke-width:1.0;"/><polygon fill="none" points="755.59,250.35,774.63,241.06,765.54,260.2,755.59,250.35" style="stroke:#181818;stroke-width:1.0;"/></g><!--MD5=[d21033b2e831c939c699520d37bf7afe]
reverse link Train to Track--><g id="link_Train_Track"><path codeLine="66" d="M902.31,124 C912.21,124 922.12,124 932.03,124 " fill="none" id="Train-backto-Track" style="stroke:#181818;stroke-width:1.0;"/><polygon fill="#181818" points="897.12,124,906.1314,127.9743,902.12,123.9857,906.1085,119.9743,897.12,124" style="stroke:#181818;stroke-width:1.0;"/></g><!--MD5=[8d8e52b114085f28fbae14581e043767]
reverse link Track to lanes--><g id="link_Track_lanes"><path codeLine="67" d="M994.47,141.82 C1037.65,161.47 1107.82,193.39 1144.47,210.07 " fill="none" id="Track-backto-lanes" style="stroke:#181818;stroke-width:1.0;"/><polygon fill="#181818" points="982.53,136.39,986.3331,142.5167,993.4512,141.3626,989.6481,135.2359,982.53,136.39" style="stroke:#181818;stroke-width:1.0;"/></g><!--MD5=[91775d1ab6e2e87240931b5d2323764f]
@startuml Train Game

object TrainGame

object User
    object Driver
        object name
        object age
        object gender
        object birthdate
        object Human
        object Computer
        object Passenger
        object driverGoals
            object forward
            object stop
            object turnTrain
            object makeWhistle

object Train
    object mainWagon
    object trainGoals
        object accelerate
        object brake
        object whistle
        object turn

object Track
    object lanes

object Wagon
    object color
    object passengerWagon
    object dimensions

TrainGame *- - User
TrainGame *- - Train
TrainGame *- - Track

User *- - name
User *- - age
User *- - gender
User *- - birthdate
User -right-> Train
User <|- - Driver
Driver <|- - Human
Driver <|- - Computer
User <|- - Passenger

Driver o- - driverGoals
driverGoals <|- - forward
driverGoals <|- - stop
driverGoals <|- - turnTrain
driverGoals <|- - makeWhistle

Train *- - Wagon
Wagon *- - color
Wagon *- - dimensions
Wagon <|- - passengerWagon
Train *- - mainWagon
Train o- - trainGoals
trainGoals <|- - accelerate
trainGoals <|- - brake
trainGoals <|- - whistle
trainGoals <|- - turn

Track -left-> Train
Track *- - lanes

@enduml

PlantUML version 1.2022.7(Mon Aug 22 11:01:30 CST 2022)
(GPL source distribution)
Java Runtime: Java(TM) SE Runtime Environment
JVM: Java HotSpot(TM) 64-Bit Server VM
Default Encoding: Cp1252
Language: en
Country: US
--></g></svg>